<svg width="32" height="32" viewBox="0 0 32 32" fill="none" xmlns="http://www.w3.org/2000/svg">
  <!-- Основа пиццы -->
  <path d="M16 2L30 28H2L16 2Z" fill="#FFD700" stroke="#FF8000" stroke-width="1.5"/>
  
  <!-- Корочка -->
  <path d="M16 2L30 28H26L16 6L6 28H2L16 2Z" fill="#FFA500"/>
  
  <!-- Сыр -->
  <ellipse cx="12" cy="18" rx="2" ry="1.5" fill="#FFFACD"/>
  <ellipse cx="20" cy="22" rx="1.5" ry="1" fill="#FFFACD"/>
  <ellipse cx="16" cy="14" rx="1" ry="0.8" fill="#FFFACD"/>
  
  <!-- Пепперони -->
  <circle cx="14" cy="20" r="1.5" fill="#DC143C"/>
  <circle cx="18" cy="16" r="1.2" fill="#DC143C"/>
  <circle cx="11" cy="24" r="1" fill="#DC143C"/>
  
  <!-- Грибы -->
  <ellipse cx="22" cy="18" rx="1" ry="0.8" fill="#8B4513"/>
  <ellipse cx="8" cy="22" rx="0.8" ry="0.6" fill="#8B4513"/>
  
  <!-- Оливки -->
  <circle cx="16" cy="24" r="0.8" fill="#2F4F2F"/>
  <circle cx="24" cy="24" r="0.6" fill="#2F4F2F"/>
  
  <!-- Блики для объема -->
  <path d="M16 2L18 6L16 4L14 6L16 2Z" fill="#FFF" opacity="0.4"/>
</svg>